<svg xmlns="http://www.w3.org/2000/svg" xmlns:xlink="http://www.w3.org/1999/xlink" zoomAndPan="magnify" preserveAspectRatio="xMidYMid meet" version="1.0" viewBox="71.31 155.74 235.14 41.45"><defs><g/></defs><g fill="#a6a6a6" fill-opacity="0.4"><g transform="translate(70.803617, 196.406957)"><g><path d="M 25.828125 0 L 12.265625 0 C 11.597656 0 11.046875 -0.117188 10.609375 -0.359375 C 10.179688 -0.609375 9.847656 -1.0625 9.609375 -1.71875 L 4.484375 -14.515625 C 4.171875 -15.273438 3.910156 -15.941406 3.703125 -16.515625 C 3.492188 -17.085938 3.316406 -17.632812 3.171875 -18.15625 C 3.035156 -18.675781 2.941406 -19.222656 2.890625 -19.796875 C 2.835938 -20.378906 2.8125 -21.085938 2.8125 -21.921875 L 2.8125 -35.703125 C 2.8125 -36.359375 2.957031 -36.832031 3.25 -37.125 C 3.550781 -37.425781 4.035156 -37.578125 4.703125 -37.578125 L 13 -37.578125 C 13.65625 -37.578125 14.15625 -37.425781 14.5 -37.125 C 14.851562 -36.832031 15.03125 -36.359375 15.03125 -35.703125 L 15.03125 -21.296875 C 15.03125 -20.941406 15.0625 -20.59375 15.125 -20.25 C 15.195312 -19.90625 15.304688 -19.539062 15.453125 -19.15625 L 17.90625 -11.84375 C 18.007812 -11.5 18.128906 -11.265625 18.265625 -11.140625 C 18.398438 -11.015625 18.609375 -10.953125 18.890625 -10.953125 L 19.46875 -10.953125 C 19.75 -10.953125 19.957031 -11.015625 20.09375 -11.140625 C 20.226562 -11.265625 20.347656 -11.5 20.453125 -11.84375 L 22.90625 -19.203125 C 23.050781 -19.585938 23.15625 -19.953125 23.21875 -20.296875 C 23.289062 -20.648438 23.328125 -21 23.328125 -21.34375 L 23.328125 -35.703125 C 23.328125 -36.359375 23.472656 -36.832031 23.765625 -37.125 C 24.066406 -37.425781 24.546875 -37.578125 25.203125 -37.578125 L 33.40625 -37.578125 C 34.0625 -37.578125 34.535156 -37.425781 34.828125 -37.125 C 35.128906 -36.832031 35.28125 -36.359375 35.28125 -35.703125 L 35.28125 -21.921875 C 35.28125 -21.085938 35.253906 -20.378906 35.203125 -19.796875 C 35.148438 -19.222656 35.050781 -18.675781 34.90625 -18.15625 C 34.769531 -17.632812 34.597656 -17.085938 34.390625 -16.515625 C 34.179688 -15.941406 33.921875 -15.273438 33.609375 -14.515625 L 28.5 -1.71875 C 28.25 -1.0625 27.90625 -0.609375 27.46875 -0.359375 C 27.039062 -0.117188 26.492188 0 25.828125 0 Z M 25.828125 0 "/></g></g></g><g fill="#a6a6a6" fill-opacity="0.4"><g transform="translate(108.894736, 196.406957)"><g><path d="M 35.4375 -9.859375 C 35.4375 -8.265625 35.203125 -6.8125 34.734375 -5.5 C 34.265625 -4.195312 33.425781 -3.082031 32.21875 -2.15625 C 31.019531 -1.238281 29.367188 -0.519531 27.265625 0 C 25.160156 0.519531 22.488281 0.78125 19.25 0.78125 C 16.019531 0.78125 13.34375 0.519531 11.21875 0 C 9.09375 -0.519531 7.429688 -1.238281 6.234375 -2.15625 C 5.035156 -3.082031 4.203125 -4.195312 3.734375 -5.5 C 3.265625 -6.8125 3.03125 -8.265625 3.03125 -9.859375 L 3.03125 -27.65625 C 3.03125 -29.257812 3.265625 -30.710938 3.734375 -32.015625 C 4.203125 -33.316406 5.035156 -34.4375 6.234375 -35.375 C 7.429688 -36.320312 9.09375 -37.054688 11.21875 -37.578125 C 13.34375 -38.097656 16.019531 -38.359375 19.25 -38.359375 C 22.488281 -38.359375 25.160156 -38.097656 27.265625 -37.578125 C 29.367188 -37.054688 31.019531 -36.320312 32.21875 -35.375 C 33.425781 -34.4375 34.265625 -33.316406 34.734375 -32.015625 C 35.203125 -30.710938 35.4375 -29.257812 35.4375 -27.65625 Z M 14.875 -11.734375 C 14.875 -11.046875 15.132812 -10.46875 15.65625 -10 C 16.175781 -9.53125 17.375 -9.296875 19.25 -9.296875 C 21.132812 -9.296875 22.335938 -9.53125 22.859375 -10 C 23.378906 -10.46875 23.640625 -11.046875 23.640625 -11.734375 L 23.640625 -25.78125 C 23.640625 -26.4375 23.378906 -27 22.859375 -27.46875 C 22.335938 -27.945312 21.132812 -28.1875 19.25 -28.1875 C 17.375 -28.1875 16.175781 -27.945312 15.65625 -27.46875 C 15.132812 -27 14.875 -26.4375 14.875 -25.78125 Z M 14.875 -11.734375 "/></g></g></g><g fill="#a6a6a6" fill-opacity="0.4"><g transform="translate(147.351109, 196.406957)"><g><path d="M 21.34375 0 L 12.890625 0 C 12.234375 0 11.753906 -0.144531 11.453125 -0.4375 C 11.160156 -0.738281 11.015625 -1.21875 11.015625 -1.875 L 11.015625 -27.5 L 3.34375 -27.5 C 2.675781 -27.5 2.195312 -27.644531 1.90625 -27.9375 C 1.613281 -28.238281 1.46875 -28.71875 1.46875 -29.375 L 1.46875 -35.703125 C 1.46875 -36.359375 1.613281 -36.832031 1.90625 -37.125 C 2.195312 -37.425781 2.675781 -37.578125 3.34375 -37.578125 L 30.890625 -37.578125 C 31.554688 -37.578125 32.035156 -37.425781 32.328125 -37.125 C 32.628906 -36.832031 32.78125 -36.359375 32.78125 -35.703125 L 32.78125 -29.375 C 32.78125 -28.71875 32.628906 -28.238281 32.328125 -27.9375 C 32.035156 -27.644531 31.554688 -27.5 30.890625 -27.5 L 23.21875 -27.5 L 23.21875 -1.875 C 23.21875 -1.21875 23.070312 -0.738281 22.78125 -0.4375 C 22.488281 -0.144531 22.007812 0 21.34375 0 Z M 21.34375 0 "/></g></g></g><g fill="#a6a6a6" fill-opacity="0.4"><g transform="translate(181.580941, 196.406957)"><g><path d="M 29.6875 0 L 5.484375 0 C 4.816406 0 4.332031 -0.144531 4.03125 -0.4375 C 3.738281 -0.738281 3.59375 -1.21875 3.59375 -1.875 L 3.59375 -35.703125 C 3.59375 -36.359375 3.738281 -36.832031 4.03125 -37.125 C 4.332031 -37.425781 4.816406 -37.578125 5.484375 -37.578125 L 29.6875 -37.578125 C 30.351562 -37.578125 30.832031 -37.425781 31.125 -37.125 C 31.425781 -36.832031 31.578125 -36.359375 31.578125 -35.703125 L 31.578125 -29.59375 C 31.578125 -28.925781 31.425781 -28.445312 31.125 -28.15625 C 30.832031 -27.863281 30.351562 -27.71875 29.6875 -27.71875 L 15.296875 -27.71875 L 15.296875 -23.6875 L 25.46875 -23.6875 C 26.125 -23.6875 26.597656 -23.539062 26.890625 -23.25 C 27.191406 -22.957031 27.34375 -22.476562 27.34375 -21.8125 L 27.34375 -16.234375 C 27.34375 -15.566406 27.191406 -15.082031 26.890625 -14.78125 C 26.597656 -14.488281 26.125 -14.34375 25.46875 -14.34375 L 15.296875 -14.34375 L 15.296875 -9.859375 L 29.6875 -9.859375 C 30.351562 -9.859375 30.832031 -9.707031 31.125 -9.40625 C 31.425781 -9.113281 31.578125 -8.640625 31.578125 -7.984375 L 31.578125 -1.875 C 31.578125 -1.21875 31.425781 -0.738281 31.125 -0.4375 C 30.832031 -0.144531 30.351562 0 29.6875 0 Z M 29.6875 0 "/></g></g></g><g fill="#a6a6a6" fill-opacity="0.4"><g transform="translate(215.706411, 196.406957)"><g><path d="M 15.296875 0 L 4.75 0 C 4.082031 0 3.601562 -0.144531 3.3125 -0.4375 C 3.019531 -0.738281 2.875 -1.21875 2.875 -1.875 L 2.875 -12.46875 C 2.875 -13.132812 3.019531 -13.613281 3.3125 -13.90625 C 3.601562 -14.195312 4.082031 -14.34375 4.75 -14.34375 L 15.296875 -14.34375 C 15.953125 -14.34375 16.425781 -14.195312 16.71875 -13.90625 C 17.019531 -13.613281 17.171875 -13.132812 17.171875 -12.46875 L 17.171875 -1.875 C 17.171875 -1.21875 17.019531 -0.738281 16.71875 -0.4375 C 16.425781 -0.144531 15.953125 0 15.296875 0 Z M 15.296875 0 "/></g></g></g><g fill="#a6a6a6" fill-opacity="0.4"><g transform="translate(235.743383, 196.406957)"><g><path d="M 32.046875 0 L 5.484375 0 C 4.816406 0 4.332031 -0.144531 4.03125 -0.4375 C 3.738281 -0.738281 3.59375 -1.21875 3.59375 -1.875 L 3.59375 -35.703125 C 3.59375 -36.359375 3.738281 -36.832031 4.03125 -37.125 C 4.332031 -37.425781 4.816406 -37.578125 5.484375 -37.578125 L 13.5625 -37.578125 C 14.226562 -37.578125 14.707031 -37.425781 15 -37.125 C 15.300781 -36.832031 15.453125 -36.359375 15.453125 -35.703125 L 15.453125 -9.859375 L 22.59375 -9.859375 L 22.59375 -18.3125 C 22.59375 -18.976562 22.738281 -19.457031 23.03125 -19.75 C 23.332031 -20.050781 23.8125 -20.203125 24.46875 -20.203125 L 32.046875 -20.203125 C 32.703125 -20.203125 33.175781 -20.050781 33.46875 -19.75 C 33.769531 -19.457031 33.921875 -18.976562 33.921875 -18.3125 L 33.921875 -1.875 C 33.921875 -1.21875 33.769531 -0.738281 33.46875 -0.4375 C 33.175781 -0.144531 32.703125 0 32.046875 0 Z M 32.046875 0 "/></g></g></g><g fill="#a6a6a6" fill-opacity="0.4"><g transform="translate(272.008216, 196.406957)"><g><path d="M 22.65625 0 L 14.1875 0 C 13.53125 0 13.050781 -0.144531 12.75 -0.4375 C 12.457031 -0.738281 12.3125 -1.21875 12.3125 -1.875 L 12.3125 -8.5625 L 4.328125 -19.25 C 3.523438 -20.332031 2.992188 -21.273438 2.734375 -22.078125 C 2.472656 -22.878906 2.34375 -24.078125 2.34375 -25.671875 L 2.34375 -35.703125 C 2.34375 -36.359375 2.488281 -36.832031 2.78125 -37.125 C 3.082031 -37.425781 3.566406 -37.578125 4.234375 -37.578125 L 12.265625 -37.578125 C 12.921875 -37.578125 13.394531 -37.425781 13.6875 -37.125 C 13.988281 -36.832031 14.140625 -36.359375 14.140625 -35.703125 L 14.140625 -27.140625 C 14.140625 -26.785156 14.15625 -26.414062 14.1875 -26.03125 C 14.226562 -25.65625 14.367188 -25.296875 14.609375 -24.953125 L 17.015625 -21.1875 C 17.191406 -20.875 17.375 -20.644531 17.5625 -20.5 C 17.75 -20.363281 17.984375 -20.296875 18.265625 -20.296875 L 18.78125 -20.296875 C 19.0625 -20.296875 19.296875 -20.363281 19.484375 -20.5 C 19.679688 -20.644531 19.867188 -20.875 20.046875 -21.1875 L 22.4375 -24.953125 C 22.6875 -25.296875 22.828125 -25.65625 22.859375 -26.03125 C 22.890625 -26.414062 22.90625 -26.785156 22.90625 -27.140625 L 22.90625 -35.703125 C 22.90625 -36.359375 23.050781 -36.832031 23.34375 -37.125 C 23.644531 -37.425781 24.125 -37.578125 24.78125 -37.578125 L 32.5625 -37.578125 C 33.226562 -37.578125 33.707031 -37.425781 34 -37.125 C 34.289062 -36.832031 34.4375 -36.359375 34.4375 -35.703125 L 34.4375 -25.671875 C 34.4375 -24.078125 34.296875 -22.878906 34.015625 -22.078125 C 33.742188 -21.273438 33.222656 -20.332031 32.453125 -19.25 L 24.53125 -8.5 L 24.53125 -1.875 C 24.53125 -1.21875 24.378906 -0.738281 24.078125 -0.4375 C 23.785156 -0.144531 23.3125 0 22.65625 0 Z M 22.65625 0 "/></g></g></g><g fill="#000000" fill-opacity="1"><g transform="translate(68.497023, 194.100356)"><g><path d="M 25.828125 0 L 12.265625 0 C 11.597656 0 11.046875 -0.117188 10.609375 -0.359375 C 10.179688 -0.609375 9.847656 -1.0625 9.609375 -1.71875 L 4.484375 -14.515625 C 4.171875 -15.273438 3.910156 -15.941406 3.703125 -16.515625 C 3.492188 -17.085938 3.316406 -17.632812 3.171875 -18.15625 C 3.035156 -18.675781 2.941406 -19.222656 2.890625 -19.796875 C 2.835938 -20.378906 2.8125 -21.085938 2.8125 -21.921875 L 2.8125 -35.703125 C 2.8125 -36.359375 2.957031 -36.832031 3.25 -37.125 C 3.550781 -37.425781 4.035156 -37.578125 4.703125 -37.578125 L 13 -37.578125 C 13.65625 -37.578125 14.15625 -37.425781 14.5 -37.125 C 14.851562 -36.832031 15.03125 -36.359375 15.03125 -35.703125 L 15.03125 -21.296875 C 15.03125 -20.941406 15.0625 -20.59375 15.125 -20.25 C 15.195312 -19.90625 15.304688 -19.539062 15.453125 -19.15625 L 17.90625 -11.84375 C 18.007812 -11.5 18.128906 -11.265625 18.265625 -11.140625 C 18.398438 -11.015625 18.609375 -10.953125 18.890625 -10.953125 L 19.46875 -10.953125 C 19.75 -10.953125 19.957031 -11.015625 20.09375 -11.140625 C 20.226562 -11.265625 20.347656 -11.5 20.453125 -11.84375 L 22.90625 -19.203125 C 23.050781 -19.585938 23.15625 -19.953125 23.21875 -20.296875 C 23.289062 -20.648438 23.328125 -21 23.328125 -21.34375 L 23.328125 -35.703125 C 23.328125 -36.359375 23.472656 -36.832031 23.765625 -37.125 C 24.066406 -37.425781 24.546875 -37.578125 25.203125 -37.578125 L 33.40625 -37.578125 C 34.0625 -37.578125 34.535156 -37.425781 34.828125 -37.125 C 35.128906 -36.832031 35.28125 -36.359375 35.28125 -35.703125 L 35.28125 -21.921875 C 35.28125 -21.085938 35.253906 -20.378906 35.203125 -19.796875 C 35.148438 -19.222656 35.050781 -18.675781 34.90625 -18.15625 C 34.769531 -17.632812 34.597656 -17.085938 34.390625 -16.515625 C 34.179688 -15.941406 33.921875 -15.273438 33.609375 -14.515625 L 28.5 -1.71875 C 28.25 -1.0625 27.90625 -0.609375 27.46875 -0.359375 C 27.039062 -0.117188 26.492188 0 25.828125 0 Z M 25.828125 0 "/></g></g></g><g fill="#000000" fill-opacity="1"><g transform="translate(106.588142, 194.100356)"><g><path d="M 35.4375 -9.859375 C 35.4375 -8.265625 35.203125 -6.8125 34.734375 -5.5 C 34.265625 -4.195312 33.425781 -3.082031 32.21875 -2.15625 C 31.019531 -1.238281 29.367188 -0.519531 27.265625 0 C 25.160156 0.519531 22.488281 0.78125 19.25 0.78125 C 16.019531 0.78125 13.34375 0.519531 11.21875 0 C 9.09375 -0.519531 7.429688 -1.238281 6.234375 -2.15625 C 5.035156 -3.082031 4.203125 -4.195312 3.734375 -5.5 C 3.265625 -6.8125 3.03125 -8.265625 3.03125 -9.859375 L 3.03125 -27.65625 C 3.03125 -29.257812 3.265625 -30.710938 3.734375 -32.015625 C 4.203125 -33.316406 5.035156 -34.4375 6.234375 -35.375 C 7.429688 -36.320312 9.09375 -37.054688 11.21875 -37.578125 C 13.34375 -38.097656 16.019531 -38.359375 19.25 -38.359375 C 22.488281 -38.359375 25.160156 -38.097656 27.265625 -37.578125 C 29.367188 -37.054688 31.019531 -36.320312 32.21875 -35.375 C 33.425781 -34.4375 34.265625 -33.316406 34.734375 -32.015625 C 35.203125 -30.710938 35.4375 -29.257812 35.4375 -27.65625 Z M 14.875 -11.734375 C 14.875 -11.046875 15.132812 -10.46875 15.65625 -10 C 16.175781 -9.53125 17.375 -9.296875 19.25 -9.296875 C 21.132812 -9.296875 22.335938 -9.53125 22.859375 -10 C 23.378906 -10.46875 23.640625 -11.046875 23.640625 -11.734375 L 23.640625 -25.78125 C 23.640625 -26.4375 23.378906 -27 22.859375 -27.46875 C 22.335938 -27.945312 21.132812 -28.1875 19.25 -28.1875 C 17.375 -28.1875 16.175781 -27.945312 15.65625 -27.46875 C 15.132812 -27 14.875 -26.4375 14.875 -25.78125 Z M 14.875 -11.734375 "/></g></g></g><g fill="#000000" fill-opacity="1"><g transform="translate(145.044514, 194.100356)"><g><path d="M 21.34375 0 L 12.890625 0 C 12.234375 0 11.753906 -0.144531 11.453125 -0.4375 C 11.160156 -0.738281 11.015625 -1.21875 11.015625 -1.875 L 11.015625 -27.5 L 3.34375 -27.5 C 2.675781 -27.5 2.195312 -27.644531 1.90625 -27.9375 C 1.613281 -28.238281 1.46875 -28.71875 1.46875 -29.375 L 1.46875 -35.703125 C 1.46875 -36.359375 1.613281 -36.832031 1.90625 -37.125 C 2.195312 -37.425781 2.675781 -37.578125 3.34375 -37.578125 L 30.890625 -37.578125 C 31.554688 -37.578125 32.035156 -37.425781 32.328125 -37.125 C 32.628906 -36.832031 32.78125 -36.359375 32.78125 -35.703125 L 32.78125 -29.375 C 32.78125 -28.71875 32.628906 -28.238281 32.328125 -27.9375 C 32.035156 -27.644531 31.554688 -27.5 30.890625 -27.5 L 23.21875 -27.5 L 23.21875 -1.875 C 23.21875 -1.21875 23.070312 -0.738281 22.78125 -0.4375 C 22.488281 -0.144531 22.007812 0 21.34375 0 Z M 21.34375 0 "/></g></g></g><g fill="#000000" fill-opacity="1"><g transform="translate(179.274347, 194.100356)"><g><path d="M 29.6875 0 L 5.484375 0 C 4.816406 0 4.332031 -0.144531 4.03125 -0.4375 C 3.738281 -0.738281 3.59375 -1.21875 3.59375 -1.875 L 3.59375 -35.703125 C 3.59375 -36.359375 3.738281 -36.832031 4.03125 -37.125 C 4.332031 -37.425781 4.816406 -37.578125 5.484375 -37.578125 L 29.6875 -37.578125 C 30.351562 -37.578125 30.832031 -37.425781 31.125 -37.125 C 31.425781 -36.832031 31.578125 -36.359375 31.578125 -35.703125 L 31.578125 -29.59375 C 31.578125 -28.925781 31.425781 -28.445312 31.125 -28.15625 C 30.832031 -27.863281 30.351562 -27.71875 29.6875 -27.71875 L 15.296875 -27.71875 L 15.296875 -23.6875 L 25.46875 -23.6875 C 26.125 -23.6875 26.597656 -23.539062 26.890625 -23.25 C 27.191406 -22.957031 27.34375 -22.476562 27.34375 -21.8125 L 27.34375 -16.234375 C 27.34375 -15.566406 27.191406 -15.082031 26.890625 -14.78125 C 26.597656 -14.488281 26.125 -14.34375 25.46875 -14.34375 L 15.296875 -14.34375 L 15.296875 -9.859375 L 29.6875 -9.859375 C 30.351562 -9.859375 30.832031 -9.707031 31.125 -9.40625 C 31.425781 -9.113281 31.578125 -8.640625 31.578125 -7.984375 L 31.578125 -1.875 C 31.578125 -1.21875 31.425781 -0.738281 31.125 -0.4375 C 30.832031 -0.144531 30.351562 0 29.6875 0 Z M 29.6875 0 "/></g></g></g><g fill="#000000" fill-opacity="1"><g transform="translate(213.399817, 194.100356)"><g><path d="M 15.296875 0 L 4.75 0 C 4.082031 0 3.601562 -0.144531 3.3125 -0.4375 C 3.019531 -0.738281 2.875 -1.21875 2.875 -1.875 L 2.875 -12.46875 C 2.875 -13.132812 3.019531 -13.613281 3.3125 -13.90625 C 3.601562 -14.195312 4.082031 -14.34375 4.75 -14.34375 L 15.296875 -14.34375 C 15.953125 -14.34375 16.425781 -14.195312 16.71875 -13.90625 C 17.019531 -13.613281 17.171875 -13.132812 17.171875 -12.46875 L 17.171875 -1.875 C 17.171875 -1.21875 17.019531 -0.738281 16.71875 -0.4375 C 16.425781 -0.144531 15.953125 0 15.296875 0 Z M 15.296875 0 "/></g></g></g><g fill="#000000" fill-opacity="1"><g transform="translate(233.436789, 194.100356)"><g><path d="M 32.046875 0 L 5.484375 0 C 4.816406 0 4.332031 -0.144531 4.03125 -0.4375 C 3.738281 -0.738281 3.59375 -1.21875 3.59375 -1.875 L 3.59375 -35.703125 C 3.59375 -36.359375 3.738281 -36.832031 4.03125 -37.125 C 4.332031 -37.425781 4.816406 -37.578125 5.484375 -37.578125 L 13.5625 -37.578125 C 14.226562 -37.578125 14.707031 -37.425781 15 -37.125 C 15.300781 -36.832031 15.453125 -36.359375 15.453125 -35.703125 L 15.453125 -9.859375 L 22.59375 -9.859375 L 22.59375 -18.3125 C 22.59375 -18.976562 22.738281 -19.457031 23.03125 -19.75 C 23.332031 -20.050781 23.8125 -20.203125 24.46875 -20.203125 L 32.046875 -20.203125 C 32.703125 -20.203125 33.175781 -20.050781 33.46875 -19.75 C 33.769531 -19.457031 33.921875 -18.976562 33.921875 -18.3125 L 33.921875 -1.875 C 33.921875 -1.21875 33.769531 -0.738281 33.46875 -0.4375 C 33.175781 -0.144531 32.703125 0 32.046875 0 Z M 32.046875 0 "/></g></g></g><g fill="#000000" fill-opacity="1"><g transform="translate(269.701622, 194.100356)"><g><path d="M 22.65625 0 L 14.1875 0 C 13.53125 0 13.050781 -0.144531 12.75 -0.4375 C 12.457031 -0.738281 12.3125 -1.21875 12.3125 -1.875 L 12.3125 -8.5625 L 4.328125 -19.25 C 3.523438 -20.332031 2.992188 -21.273438 2.734375 -22.078125 C 2.472656 -22.878906 2.34375 -24.078125 2.34375 -25.671875 L 2.34375 -35.703125 C 2.34375 -36.359375 2.488281 -36.832031 2.78125 -37.125 C 3.082031 -37.425781 3.566406 -37.578125 4.234375 -37.578125 L 12.265625 -37.578125 C 12.921875 -37.578125 13.394531 -37.425781 13.6875 -37.125 C 13.988281 -36.832031 14.140625 -36.359375 14.140625 -35.703125 L 14.140625 -27.140625 C 14.140625 -26.785156 14.15625 -26.414062 14.1875 -26.03125 C 14.226562 -25.65625 14.367188 -25.296875 14.609375 -24.953125 L 17.015625 -21.1875 C 17.191406 -20.875 17.375 -20.644531 17.5625 -20.5 C 17.75 -20.363281 17.984375 -20.296875 18.265625 -20.296875 L 18.78125 -20.296875 C 19.0625 -20.296875 19.296875 -20.363281 19.484375 -20.5 C 19.679688 -20.644531 19.867188 -20.875 20.046875 -21.1875 L 22.4375 -24.953125 C 22.6875 -25.296875 22.828125 -25.65625 22.859375 -26.03125 C 22.890625 -26.414062 22.90625 -26.785156 22.90625 -27.140625 L 22.90625 -35.703125 C 22.90625 -36.359375 23.050781 -36.832031 23.34375 -37.125 C 23.644531 -37.425781 24.125 -37.578125 24.78125 -37.578125 L 32.5625 -37.578125 C 33.226562 -37.578125 33.707031 -37.425781 34 -37.125 C 34.289062 -36.832031 34.4375 -36.359375 34.4375 -35.703125 L 34.4375 -25.671875 C 34.4375 -24.078125 34.296875 -22.878906 34.015625 -22.078125 C 33.742188 -21.273438 33.222656 -20.332031 32.453125 -19.25 L 24.53125 -8.5 L 24.53125 -1.875 C 24.53125 -1.21875 24.378906 -0.738281 24.078125 -0.4375 C 23.785156 -0.144531 23.3125 0 22.65625 0 Z M 22.65625 0 "/></g></g></g></svg>